<?xml version="1.0" encoding="UTF-8" standalone="no"?>
<svg
   xmlns:dc="http://purl.org/dc/elements/1.1/"
   xmlns:cc="http://creativecommons.org/ns#"
   xmlns:rdf="http://www.w3.org/1999/02/22-rdf-syntax-ns#"
   xmlns:svg="http://www.w3.org/2000/svg"
   xmlns="http://www.w3.org/2000/svg"
   xmlns:sodipodi="http://sodipodi.sourceforge.net/DTD/sodipodi-0.dtd"
   xmlns:inkscape="http://www.inkscape.org/namespaces/inkscape"
   sodipodi:docname="demo logo1.svg"
   inkscape:version="1.0 (4035a4fb49, 2020-05-01)"
   id="svg8"
   version="1.1"
   viewBox="0 0 137.58333 31.750002"
   height="120"
   width="520">
  <defs
     id="defs2" />
  <sodipodi:namedview
     inkscape:window-maximized="1"
     inkscape:window-y="-8"
     inkscape:window-x="-8"
     inkscape:window-height="1018"
     inkscape:window-width="1920"
     inkscape:showpageshadow="false"
     units="px"
     showgrid="false"
     inkscape:document-rotation="0"
     inkscape:current-layer="layer1"
     inkscape:document-units="mm"
     inkscape:cy="287.61601"
     inkscape:cx="205.77026"
     inkscape:zoom="0.98994949"
     inkscape:pageshadow="2"
     inkscape:pageopacity="0.0"
     borderopacity="1.0"
     bordercolor="#666666"
     pagecolor="#ffffff"
     id="base" />
  <metadata
     id="metadata5">
    <rdf:RDF>
      <cc:Work
         rdf:about="">
        <dc:format>image/svg+xml</dc:format>
        <dc:type
           rdf:resource="http://purl.org/dc/dcmitype/StillImage" />
        <dc:title></dc:title>
      </cc:Work>
    </rdf:RDF>
  </metadata>
  <g
     id="layer1"
     inkscape:groupmode="layer"
     inkscape:label="Layer 1">
    <g
       style="font-style:normal;font-weight:normal;font-size:43.8965px;line-height:1.25;font-family:sans-serif;letter-spacing:0px;word-spacing:0px;fill:#377eb4;fill-opacity:1;stroke:none;stroke-width:0.264583"
       id="text835"
       transform="scale(1.1945367,0.83714464)"
       aria-label="demo">
      <path
         id="path841"
         style="font-style:normal;font-variant:normal;font-weight:normal;font-stretch:normal;font-family:Rubik;-inkscape-font-specification:Rubik;fill:#377eb4;fill-opacity:1;stroke-width:0.264583"
         d="m 19.027308,4.3456942 q 0,-0.4828615 0.351172,-0.8340335 0.351172,-0.351172 0.834033,-0.351172 h 1.624171 q 0.482861,0 0.834033,0.351172 0.351172,0.351172 0.351172,0.8340335 V 33.141798 q 0,0.482861 -0.351172,0.834033 -0.351172,0.351172 -0.834033,0.351172 h -1.624171 q -0.482861,0 -0.834033,-0.351172 -0.351172,-0.351172 -0.351172,-0.834033 v -1.360791 q -2.238721,2.984961 -6.803957,2.984961 -2.7215834,0 -4.9603049,-1.272998 Q 5.0682211,32.219971 3.7074296,29.849561 2.3905346,27.47915 2.2588451,24.318602 l -0.043896,-1.448585 0.043896,-1.404688 q 0.1316895,-3.160548 1.4485845,-5.487062 1.3607915,-2.370411 3.5556165,-3.64341 2.194825,-1.272998 4.9603049,-1.272998 2.458204,0 4.126271,0.87793 1.711963,0.834033 2.677686,2.107032 z m 0,16.9879458 q -0.13169,-3.072755 -1.843653,-4.784719 -1.711963,-1.711963 -4.521339,-1.711963 -2.8532729,0 -4.5652364,1.843653 -1.668067,1.843653 -1.843653,5.004201 l -0.043896,1.229102 0.043896,1.229102 q 0.175586,3.160548 1.843653,5.004201 1.7119635,1.843653 4.5652364,1.843653 2.721583,0 4.477443,-1.668067 1.755859,-1.711964 1.887549,-4.52134 0.0439,-0.438965 0.0439,-1.75586 0,-1.272998 -0.0439,-1.711963 z" />
      <path
         id="path843"
         style="font-style:normal;font-variant:normal;font-weight:normal;font-stretch:normal;font-family:Rubik;-inkscape-font-specification:Rubik;fill:#377eb4;fill-opacity:1;stroke-width:0.264583"
         d="m 38.590058,11.061859 q 4.696925,0 7.418508,2.984962 2.721583,2.984962 2.721583,8.120852 v 1.185206 q 0,0.482861 -0.351172,0.834033 -0.351172,0.351172 -0.834033,0.351172 H 32.444548 v 0.263379 q 0.08779,2.897169 1.75586,4.565236 1.711963,1.624171 4.38965,1.624171 2.194825,0 3.38003,-0.570655 1.229102,-0.570654 2.194825,-1.62417 0.351172,-0.351172 0.614551,-0.482862 0.307276,-0.131689 0.790137,-0.131689 h 1.316895 q 0.526758,0 0.87793,0.351172 0.351172,0.351172 0.307276,0.834033 -0.175586,1.185206 -1.316895,2.458204 -1.097413,1.229102 -3.204445,2.107032 -2.063135,0.834033 -4.960304,0.834033 -2.809376,0 -5.004201,-1.272998 -2.194825,-1.316895 -3.51172,-3.599513 -1.272999,-2.282618 -1.536378,-5.13589 -0.08779,-1.316895 -0.08779,-2.019239 0,-0.702344 0.08779,-2.019239 0.263379,-2.721583 1.536378,-4.916408 1.316895,-2.194825 3.467823,-3.467824 2.194825,-1.272998 5.048098,-1.272998 z m 6.189406,9.788919 v -0.131689 q 0,-2.677687 -1.711963,-4.257961 -1.668067,-1.62417 -4.477443,-1.62417 -2.545997,0 -4.345754,1.62417 -1.75586,1.624171 -1.799756,4.257961 v 0.131689 z" />
      <path
         id="path845"
         style="font-style:normal;font-variant:normal;font-weight:normal;font-stretch:normal;font-family:Rubik;-inkscape-font-specification:Rubik;fill:#377eb4;fill-opacity:1;stroke-width:0.264583"
         d="m 58.020433,14.046821 q 1.053516,-1.360792 2.370411,-2.150929 1.316895,-0.834033 3.51172,-0.834033 5.13589,0 7.199026,3.818995 1.272998,-1.843653 2.897169,-2.809376 1.62417,-1.009619 4.25796,-1.009619 4.301857,0 6.364993,2.589893 2.107032,2.589894 2.107032,7.330716 v 12.15933 q 0,0.482861 -0.351172,0.834033 -0.351172,0.351172 -0.834034,0.351172 h -1.62417 q -0.482862,0 -0.834034,-0.351172 -0.351172,-0.351172 -0.351172,-0.834033 V 21.421433 q 0,-6.584475 -5.179787,-6.584475 -2.370411,0 -3.775099,1.580274 -1.404688,1.580274 -1.404688,4.696925 v 12.027641 q 0,0.482861 -0.351172,0.834033 -0.351172,0.351172 -0.834033,0.351172 h -1.624171 q -0.482861,0 -0.834033,-0.351172 -0.351172,-0.351172 -0.351172,-0.834033 V 21.421433 q 0,-6.584475 -5.179787,-6.584475 -2.370411,0 -3.775099,1.580274 -1.404688,1.580274 -1.404688,4.696925 v 12.027641 q 0,0.482861 -0.351172,0.834033 -0.351172,0.351172 -0.834034,0.351172 h -1.62417 q -0.482862,0 -0.834034,-0.351172 -0.351172,-0.351172 -0.351172,-0.834033 V 12.686029 q 0,-0.482861 0.351172,-0.834033 0.351172,-0.351172 0.834034,-0.351172 h 1.62417 q 0.482862,0 0.834034,0.351172 0.351172,0.351172 0.351172,0.834033 z" />
      <path
         id="path847"
         style="font-style:normal;font-variant:normal;font-weight:normal;font-stretch:normal;font-family:Rubik;-inkscape-font-specification:Rubik;fill:#377eb4;fill-opacity:1;stroke-width:0.264583"
         d="m 112.8746,20.850778 q 0.0878,0.965723 0.0878,2.107032 0,1.053516 -0.0878,2.019239 -0.39507,4.477443 -3.11665,7.155129 -2.67769,2.63379 -7.28682,2.63379 -4.609135,0 -7.330718,-2.63379 -2.677686,-2.677686 -3.072755,-7.155129 -0.0439,-0.482861 -0.0439,-2.019239 0,-1.62417 0.0439,-2.107032 0.351172,-4.477443 3.072755,-7.111233 2.721583,-2.677686 7.330718,-2.677686 4.60913,0 7.33071,2.677686 2.72159,2.63379 3.07276,7.111233 z m -3.99458,0.219483 q -0.26338,-2.809376 -1.88755,-4.52134 -1.58028,-1.711963 -4.52134,-1.711963 -2.941068,0 -4.565238,1.711963 -1.580274,1.711964 -1.843653,4.52134 -0.0439,0.526758 -0.0439,1.887549 0,1.316895 0.0439,1.799757 0.263379,2.809376 1.843653,4.521339 1.62417,1.711964 4.565238,1.711964 2.94106,0 4.52134,-1.711964 1.62417,-1.711963 1.88755,-4.521339 0.0878,-0.965723 0.0878,-1.799757 0,-0.834033 -0.0878,-1.887549 z" />
    </g>
  </g>
</svg>
