<?xml version="1.0" encoding="UTF-8"?>
<svg width="500" height="120" version="1.1" viewBox="0 0 132.29 31.75" xmlns="http://www.w3.org/2000/svg" xmlns:cc="http://creativecommons.org/ns#" xmlns:dc="http://purl.org/dc/elements/1.1/" xmlns:rdf="http://www.w3.org/1999/02/22-rdf-syntax-ns#">
 <metadata>
  <rdf:RDF>
   <cc:Work rdf:about="">
    <dc:format>image/svg+xml</dc:format>
    <dc:type rdf:resource="http://purl.org/dc/dcmitype/StillImage"/>
    <dc:title/>
   </cc:Work>
  </rdf:RDF>
 </metadata>
 <g transform="scale(1.1455 .87298)" fill="#377eb4" stroke-width=".26458" aria-label="demo">
  <path d="m13.09 33.674q-3.0732 0-5.5555-1.4184-2.4428-1.4578-3.9006-3.94-1.4184-2.4822-1.4184-5.5949 0-3.1126 1.3002-5.5555 1.3396-2.4822 3.6248-3.9006 2.2852-1.4578 5.1615-1.4578 2.3246 0 4.2947 0.98501 1.97 0.94561 3.3096 2.6004v-10.638q0-0.90621 0.55161-1.4578 0.59101-0.55161 1.4578-0.55161 0.90621 0 1.4578 0.55161t0.55161 1.4578v17.967q0 3.1126-1.4578 5.5949-1.4184 2.4822-3.8612 3.94-2.4428 1.4184-5.5161 1.4184zm0-3.546q2.0094 0 3.5854-0.94561 1.576-0.98501 2.4822-2.6792 0.90621-1.6942 0.90621-3.7824 0-2.1276-0.90621-3.7824-0.90621-1.6548-2.4822-2.6004-1.576-0.98501-3.5854-0.98501-1.97 0-3.5854 0.98501-1.576 0.94561-2.5216 2.6004-0.90621 1.6548-0.90621 3.7824 0 2.0882 0.90621 3.7824 0.94561 1.6942 2.5216 2.6792 1.6154 0.94561 3.5854 0.94561z"/>
  <path d="m41.148 33.674q-3.2702 0-5.8313-1.379-2.5216-1.4184-3.9795-3.8612-1.4184-2.4822-1.4184-5.6737 0-3.2308 1.3396-5.6737 1.379-2.4822 3.7824-3.8612 2.4034-1.4184 5.5161-1.4184 3.0732 0 5.2797 1.379 2.2064 1.3396 3.349 3.743 1.182 2.364 1.182 5.4767 0 0.74861-0.51221 1.2608-0.51221 0.47281-1.3002 0.47281h-15.878v-3.152h15.76l-1.6154 1.1032q-0.0394-1.97-0.78801-3.5066-0.74861-1.576-2.1276-2.4822-1.379-0.90621-3.349-0.90621-2.2458 0-3.8612 0.98501-1.576 0.98501-2.4034 2.7186-0.82741 1.6942-0.82741 3.8612 0 2.167 0.98501 3.8612 0.98501 1.6942 2.7186 2.6792 1.7336 0.98501 3.9795 0.98501 1.2214 0 2.4822-0.43341 1.3002-0.47281 2.0882-1.0638 0.59101-0.43341 1.2608-0.43341 0.70921-0.0394 1.2214 0.394 0.66981 0.59101 0.70921 1.3002 0.0394 0.70921-0.63041 1.2214-1.3396 1.0638-3.349 1.7336-1.97 0.66981-3.7824 0.66981z"/>
  <path d="m83.783 33.556q-0.86681 0-1.4578-0.55161-0.55161-0.59101-0.55161-1.4578v-11.269q0-2.4822-1.2214-3.6642-1.2214-1.2214-3.1914-1.2214-2.0488 0-3.3884 1.4184-1.3002 1.4184-1.3002 3.6248h-3.2702q0-2.561 1.1032-4.4917 1.1032-1.97 3.0732-3.0732 2.0094-1.1032 4.5705-1.1032 2.2458 0 3.9795 0.98501 1.7336 0.98501 2.6792 2.9156 0.98501 1.8912 0.98501 4.6099v11.269q0 0.86681-0.55161 1.4578-0.55161 0.55161-1.4578 0.55161zm-26.28 0q-0.86681 0-1.4578-0.55161-0.55161-0.59101-0.55161-1.4578v-17.533q0-0.90621 0.55161-1.4578 0.59101-0.55161 1.4578-0.55161 0.90621 0 1.4578 0.55161t0.55161 1.4578v17.533q0 0.86681-0.55161 1.4578-0.55161 0.55161-1.4578 0.55161zm13.16 0q-0.86681 0-1.4578-0.55161-0.55161-0.59101-0.55161-1.4578v-11.269q0-2.4822-1.2214-3.6642-1.2214-1.2214-3.1914-1.2214-2.0488 0-3.3884 1.4184-1.3396 1.4184-1.3396 3.6248h-2.4822q0-2.561 1.0244-4.4917 1.0244-1.97 2.8368-3.0732t4.1371-1.1032q2.2458 0 3.9794 0.98501 1.7336 0.98501 2.6792 2.9156 0.98501 1.8912 0.98501 4.6099v11.269q0 0.86681-0.55161 1.4578-0.55161 0.55161-1.4578 0.55161z"/>
  <path d="m102.2 33.674q-3.1914 0-5.6343-1.379-2.4428-1.4184-3.8612-3.8612-1.379-2.4822-1.379-5.6737 0-3.2308 1.379-5.6737 1.4184-2.4822 3.8612-3.8612 2.4428-1.4184 5.6343-1.4184 3.152 0 5.5949 1.4184 2.4428 1.379 3.8218 3.8612 1.4184 2.4428 1.4184 5.6737 0 3.1914-1.379 5.6737-1.379 2.4428-3.8218 3.8612-2.4428 1.379-5.6343 1.379zm0-3.546q2.0488 0 3.6248-0.94561t2.4428-2.6004q0.90621-1.6548 0.90621-3.8218 0-2.167-0.90621-3.8218-0.86681-1.6942-2.4428-2.6398t-3.6248-0.94561q-2.0488 0-3.6248 0.94561-1.576 0.94561-2.4822 2.6398-0.90621 1.6548-0.90621 3.8218 0 2.167 0.90621 3.8218 0.90621 1.6548 2.4822 2.6004 1.576 0.94561 3.6248 0.94561z"/>
 </g>
</svg>
